<?xml version="1.0" encoding="UTF-8" standalone="no"?>
<!DOCTYPE svg PUBLIC "-//W3C//DTD SVG 1.1//EN" "http://www.w3.org/Graphics/SVG/1.1/DTD/svg11.dtd">
<svg width="100%" height="100%" viewBox="0 0 1749 1241" version="1.1" xmlns="http://www.w3.org/2000/svg" xmlns:xlink="http://www.w3.org/1999/xlink" xml:space="preserve" xmlns:serif="http://www.serif.com/" style="fill-rule:evenodd;clip-rule:evenodd;stroke-linejoin:round;stroke-miterlimit:2;">
    <g transform="matrix(2.12457,0,0,2.12457,464.693,-263.893)">
        <g transform="matrix(50,0,0,50,-174.691,488.785)">
            <path d="M0.075,-0.68L0.076,-0.247C0.076,-0.198 0.087,-0.154 0.11,-0.115C0.133,-0.076 0.165,-0.045 0.207,-0.023C0.249,0 0.298,0.011 0.353,0.011C0.409,0.011 0.458,0 0.501,-0.023C0.544,-0.045 0.577,-0.076 0.6,-0.115C0.623,-0.154 0.635,-0.198 0.635,-0.247L0.635,-0.68L0.504,-0.68L0.504,-0.257C0.504,-0.204 0.491,-0.164 0.464,-0.137C0.437,-0.109 0.4,-0.095 0.355,-0.095C0.31,-0.095 0.274,-0.109 0.247,-0.136C0.22,-0.163 0.206,-0.203 0.206,-0.257L0.206,-0.68L0.075,-0.68Z" style="fill:rgb(19,16,13);fill-rule:nonzero;"/>
        </g>
        <g transform="matrix(50,0,0,50,-139.191,488.785)">
            <path d="M0.027,-0.038C0.048,-0.022 0.075,-0.01 0.108,-0.001C0.141,0.008 0.17,0.012 0.195,0.012C0.26,0.012 0.31,-0.001 0.345,-0.028C0.38,-0.054 0.397,-0.091 0.397,-0.14C0.397,-0.179 0.381,-0.211 0.35,-0.238C0.319,-0.265 0.279,-0.287 0.232,-0.304C0.207,-0.313 0.189,-0.321 0.175,-0.328C0.163,-0.335 0.156,-0.342 0.156,-0.351C0.156,-0.362 0.162,-0.372 0.172,-0.381C0.184,-0.389 0.197,-0.393 0.214,-0.393C0.235,-0.393 0.256,-0.39 0.276,-0.385C0.295,-0.38 0.318,-0.371 0.343,-0.36L0.382,-0.447C0.359,-0.462 0.332,-0.475 0.299,-0.484C0.266,-0.493 0.239,-0.498 0.216,-0.498C0.158,-0.498 0.112,-0.485 0.078,-0.459C0.044,-0.432 0.027,-0.396 0.027,-0.35C0.027,-0.313 0.042,-0.283 0.073,-0.259C0.104,-0.235 0.142,-0.215 0.188,-0.2C0.245,-0.183 0.273,-0.161 0.273,-0.135C0.273,-0.122 0.265,-0.111 0.248,-0.104C0.231,-0.097 0.213,-0.093 0.193,-0.093C0.158,-0.093 0.115,-0.104 0.066,-0.126L0.027,-0.038Z" style="fill:rgb(19,16,13);fill-rule:nonzero;"/>
        </g>
        <g transform="matrix(50,0,0,50,-118.091,488.785)">
            <path d="M0.315,-0.535L0.248,-0.484L0.248,-0.706L0.119,-0.695L0.119,-0.386L0,-0.296L0.05,-0.206L0.119,-0.257L0.119,0L0.248,0L0.248,-0.356L0.366,-0.445L0.315,-0.535Z" style="fill:rgb(19,16,13);fill-rule:nonzero;"/>
        </g>
        <g transform="matrix(50,0,0,50,-99.7915,488.785)">
            <path d="M0.381,-0.149C0.357,-0.132 0.335,-0.118 0.315,-0.108C0.295,-0.097 0.274,-0.092 0.251,-0.092C0.229,-0.092 0.212,-0.1 0.2,-0.117C0.187,-0.134 0.181,-0.157 0.181,-0.187L0.181,-0.485L0.051,-0.485L0.051,-0.181C0.051,-0.119 0.063,-0.071 0.088,-0.036C0.113,-0.001 0.156,0.016 0.217,0.016C0.244,0.016 0.274,0.01 0.308,-0.002C0.342,-0.014 0.374,-0.031 0.404,-0.052L0.426,0L0.511,0L0.511,-0.485L0.381,-0.485L0.381,-0.149Z" style="fill:rgb(19,16,13);fill-rule:nonzero;"/>
        </g>
        <g transform="matrix(50,0,0,50,-71.4915,488.785)">
            <path d="M0.507,-0.485L0.507,0.023C0.507,0.09 0.484,0.141 0.437,0.176C0.39,0.212 0.328,0.23 0.249,0.23C0.224,0.23 0.191,0.225 0.149,0.214C0.107,0.204 0.074,0.191 0.051,0.175L0.09,0.083C0.12,0.098 0.147,0.108 0.172,0.115C0.197,0.122 0.221,0.125 0.246,0.126C0.285,0.125 0.317,0.116 0.341,0.097C0.364,0.078 0.376,0.053 0.376,0.022L0.376,-0.019C0.343,0.002 0.307,0.012 0.269,0.012C0.194,0.012 0.134,-0.011 0.091,-0.057C0.047,-0.102 0.025,-0.164 0.025,-0.242C0.025,-0.293 0.035,-0.337 0.055,-0.376C0.074,-0.415 0.103,-0.445 0.14,-0.466C0.177,-0.487 0.222,-0.498 0.273,-0.498C0.295,-0.498 0.319,-0.493 0.344,-0.482C0.369,-0.471 0.391,-0.458 0.41,-0.441L0.439,-0.485L0.507,-0.485ZM0.274,-0.099C0.291,-0.099 0.308,-0.102 0.325,-0.109C0.341,-0.116 0.358,-0.126 0.376,-0.139L0.376,-0.346C0.359,-0.361 0.342,-0.371 0.326,-0.378C0.31,-0.384 0.293,-0.387 0.274,-0.387C0.239,-0.387 0.211,-0.374 0.19,-0.346C0.169,-0.32 0.159,-0.285 0.159,-0.242C0.159,-0.199 0.169,-0.165 0.19,-0.139C0.21,-0.112 0.238,-0.099 0.274,-0.099Z" style="fill:rgb(19,16,13);fill-rule:nonzero;"/>
        </g>
        <g transform="matrix(50,0,0,50,-43.0915,488.785)">
            <path d="M0.119,-0.554C0.14,-0.554 0.157,-0.561 0.172,-0.575C0.186,-0.589 0.193,-0.606 0.193,-0.627C0.193,-0.648 0.186,-0.665 0.172,-0.679C0.157,-0.693 0.14,-0.7 0.119,-0.7C0.099,-0.7 0.082,-0.693 0.068,-0.679C0.054,-0.665 0.047,-0.648 0.047,-0.627C0.047,-0.606 0.054,-0.589 0.068,-0.575C0.082,-0.561 0.099,-0.554 0.119,-0.554ZM0.185,0L0.185,-0.485L0.055,-0.485L0.055,0L0.185,0Z" style="fill:rgb(19,16,13);fill-rule:nonzero;"/>
        </g>
        <g transform="matrix(50,0,0,50,-19.8415,488.785)">
            <path d="M0.204,-0.484L0.204,-0.622L0.075,-0.599L0.075,-0.484L0.01,-0.484L0.01,-0.384L0.075,-0.384L0.075,-0.155C0.075,-0.1 0.092,-0.057 0.126,-0.026C0.16,0.005 0.207,0.02 0.268,0.02C0.284,0.02 0.302,0.017 0.322,0.011C0.341,0.005 0.356,-0.002 0.366,-0.01L0.328,-0.104C0.31,-0.095 0.292,-0.091 0.275,-0.091C0.252,-0.091 0.235,-0.099 0.223,-0.115C0.21,-0.131 0.204,-0.152 0.204,-0.178L0.204,-0.384L0.332,-0.384L0.292,-0.484L0.204,-0.484Z" style="fill:rgb(19,16,13);fill-rule:nonzero;"/>
        </g>
        <g transform="matrix(50,0,0,50,-0.791478,488.785)">
            <path d="M0.185,-0.296C0.213,-0.321 0.243,-0.341 0.276,-0.357C0.308,-0.373 0.335,-0.381 0.357,-0.381L0.331,-0.485C0.307,-0.485 0.279,-0.477 0.248,-0.46C0.217,-0.443 0.189,-0.425 0.166,-0.404L0.123,-0.485L0.055,-0.485L0.055,0L0.185,0L0.185,-0.296Z" style="fill:rgb(19,16,13);fill-rule:nonzero;"/>
        </g>
        <g transform="matrix(50,0,0,50,17.5585,488.785)">
            <path d="M0.102,-0.346C0.121,-0.355 0.143,-0.362 0.17,-0.369C0.197,-0.375 0.221,-0.378 0.243,-0.378C0.267,-0.378 0.286,-0.371 0.3,-0.358C0.313,-0.344 0.32,-0.325 0.321,-0.3L0.226,-0.3C0.17,-0.3 0.125,-0.286 0.092,-0.26C0.059,-0.233 0.042,-0.194 0.042,-0.145C0.042,-0.097 0.057,-0.059 0.086,-0.031C0.115,-0.002 0.159,0.012 0.217,0.012C0.262,0.012 0.304,-0.009 0.345,-0.052L0.367,0L0.452,0L0.452,-0.319C0.452,-0.353 0.443,-0.384 0.424,-0.411C0.405,-0.438 0.379,-0.46 0.347,-0.475C0.315,-0.49 0.28,-0.498 0.241,-0.498C0.218,-0.498 0.188,-0.494 0.15,-0.485C0.112,-0.475 0.084,-0.465 0.067,-0.454L0.102,-0.346ZM0.153,-0.145C0.153,-0.164 0.16,-0.18 0.172,-0.193C0.186,-0.206 0.203,-0.213 0.224,-0.213L0.322,-0.213L0.322,-0.139C0.289,-0.107 0.254,-0.091 0.215,-0.091C0.197,-0.091 0.182,-0.096 0.171,-0.107C0.159,-0.118 0.153,-0.13 0.153,-0.145Z" style="fill:rgb(19,16,13);fill-rule:nonzero;"/>
        </g>
        <g transform="matrix(50,0,0,50,42.7085,488.785)">
            <path d="M0.185,-0.336C0.209,-0.353 0.231,-0.367 0.251,-0.378C0.271,-0.388 0.292,-0.393 0.315,-0.393C0.337,-0.393 0.354,-0.385 0.367,-0.368C0.379,-0.351 0.385,-0.328 0.385,-0.298L0.385,0L0.515,0L0.515,-0.304C0.515,-0.366 0.503,-0.414 0.478,-0.449C0.453,-0.484 0.41,-0.501 0.349,-0.501C0.322,-0.501 0.292,-0.495 0.258,-0.483C0.224,-0.471 0.192,-0.454 0.162,-0.433L0.14,-0.485L0.055,-0.485L0.055,0L0.185,0L0.185,-0.336Z" style="fill:rgb(19,16,13);fill-rule:nonzero;"/>
        </g>
        <g transform="matrix(50,0,0,50,71.0085,488.785)">
            <path d="M0.027,-0.038C0.048,-0.022 0.075,-0.01 0.108,-0.001C0.141,0.008 0.17,0.012 0.195,0.012C0.26,0.012 0.31,-0.001 0.345,-0.028C0.38,-0.054 0.397,-0.091 0.397,-0.14C0.397,-0.179 0.381,-0.211 0.35,-0.238C0.319,-0.265 0.279,-0.287 0.232,-0.304C0.207,-0.313 0.189,-0.321 0.175,-0.328C0.163,-0.335 0.156,-0.342 0.156,-0.351C0.156,-0.362 0.162,-0.372 0.172,-0.381C0.184,-0.389 0.197,-0.393 0.214,-0.393C0.235,-0.393 0.256,-0.39 0.276,-0.385C0.295,-0.38 0.318,-0.371 0.343,-0.36L0.382,-0.447C0.359,-0.462 0.332,-0.475 0.299,-0.484C0.266,-0.493 0.239,-0.498 0.216,-0.498C0.158,-0.498 0.112,-0.485 0.078,-0.459C0.044,-0.432 0.027,-0.396 0.027,-0.35C0.027,-0.313 0.042,-0.283 0.073,-0.259C0.104,-0.235 0.142,-0.215 0.188,-0.2C0.245,-0.183 0.273,-0.161 0.273,-0.135C0.273,-0.122 0.265,-0.111 0.248,-0.104C0.231,-0.097 0.213,-0.093 0.193,-0.093C0.158,-0.093 0.115,-0.104 0.066,-0.126L0.027,-0.038Z" style="fill:rgb(19,16,13);fill-rule:nonzero;"/>
        </g>
        <g transform="matrix(50,0,0,50,92.1085,488.785)">
            <path d="M0.281,-0.498C0.356,-0.498 0.416,-0.475 0.46,-0.43C0.503,-0.384 0.525,-0.322 0.525,-0.244C0.525,-0.193 0.515,-0.149 0.496,-0.11C0.476,-0.071 0.447,-0.041 0.41,-0.02C0.373,0.001 0.328,0.012 0.277,0.012C0.25,0.012 0.221,0.004 0.19,-0.011L0.19,0.209L0.061,0.219L0.061,-0.485L0.127,-0.485L0.153,-0.452C0.192,-0.483 0.235,-0.498 0.281,-0.498ZM0.276,-0.099C0.311,-0.099 0.339,-0.113 0.36,-0.14C0.381,-0.167 0.391,-0.201 0.391,-0.244C0.391,-0.287 0.381,-0.321 0.361,-0.347C0.34,-0.374 0.312,-0.387 0.276,-0.387C0.248,-0.387 0.219,-0.377 0.19,-0.358L0.19,-0.127C0.217,-0.108 0.246,-0.099 0.276,-0.099Z" style="fill:rgb(19,16,13);fill-rule:nonzero;"/>
        </g>
        <g transform="matrix(50,0,0,50,119.609,488.785)">
            <path d="M0.543,-0.244C0.543,-0.193 0.532,-0.148 0.511,-0.109C0.49,-0.07 0.46,-0.041 0.421,-0.02C0.382,0.001 0.336,0.012 0.284,0.012C0.232,0.012 0.187,0.002 0.148,-0.019C0.109,-0.04 0.078,-0.069 0.057,-0.108C0.036,-0.146 0.025,-0.191 0.025,-0.242C0.025,-0.293 0.036,-0.338 0.057,-0.377C0.078,-0.416 0.109,-0.446 0.148,-0.467C0.187,-0.488 0.232,-0.498 0.284,-0.498C0.336,-0.498 0.382,-0.488 0.421,-0.467C0.46,-0.446 0.49,-0.417 0.511,-0.379C0.532,-0.34 0.543,-0.295 0.543,-0.244ZM0.284,-0.099C0.32,-0.099 0.35,-0.113 0.374,-0.14C0.397,-0.167 0.409,-0.202 0.409,-0.244C0.409,-0.286 0.397,-0.32 0.374,-0.347C0.351,-0.374 0.321,-0.387 0.284,-0.387C0.248,-0.387 0.218,-0.373 0.195,-0.346C0.171,-0.319 0.159,-0.284 0.159,-0.242C0.159,-0.2 0.171,-0.166 0.194,-0.139C0.217,-0.112 0.247,-0.099 0.284,-0.099Z" style="fill:rgb(19,16,13);fill-rule:nonzero;"/>
        </g>
        <g transform="matrix(50,0,0,50,148.009,488.785)">
            <path d="M0.185,-0.296C0.213,-0.321 0.243,-0.341 0.276,-0.357C0.308,-0.373 0.335,-0.381 0.357,-0.381L0.331,-0.485C0.307,-0.485 0.279,-0.477 0.248,-0.46C0.217,-0.443 0.189,-0.425 0.166,-0.404L0.123,-0.485L0.055,-0.485L0.055,0L0.185,0L0.185,-0.296Z" style="fill:rgb(19,16,13);fill-rule:nonzero;"/>
        </g>
        <g transform="matrix(50,0,0,50,166.359,488.785)">
            <path d="M0.204,-0.484L0.204,-0.622L0.075,-0.599L0.075,-0.484L0.01,-0.484L0.01,-0.384L0.075,-0.384L0.075,-0.155C0.075,-0.1 0.092,-0.057 0.126,-0.026C0.16,0.005 0.207,0.02 0.268,0.02C0.284,0.02 0.302,0.017 0.322,0.011C0.341,0.005 0.356,-0.002 0.366,-0.01L0.328,-0.104C0.31,-0.095 0.292,-0.091 0.275,-0.091C0.252,-0.091 0.235,-0.099 0.223,-0.115C0.21,-0.131 0.204,-0.152 0.204,-0.178L0.204,-0.384L0.332,-0.384L0.292,-0.484L0.204,-0.484Z" style="fill:rgb(19,16,13);fill-rule:nonzero;"/>
        </g>
        <g transform="matrix(50,0,0,50,185.409,488.785)">
            <path d="M0.543,-0.244C0.543,-0.193 0.532,-0.148 0.511,-0.109C0.49,-0.07 0.46,-0.041 0.421,-0.02C0.382,0.001 0.336,0.012 0.284,0.012C0.232,0.012 0.187,0.002 0.148,-0.019C0.109,-0.04 0.078,-0.069 0.057,-0.108C0.036,-0.146 0.025,-0.191 0.025,-0.242C0.025,-0.293 0.036,-0.338 0.057,-0.377C0.078,-0.416 0.109,-0.446 0.148,-0.467C0.187,-0.488 0.232,-0.498 0.284,-0.498C0.336,-0.498 0.382,-0.488 0.421,-0.467C0.46,-0.446 0.49,-0.417 0.511,-0.379C0.532,-0.34 0.543,-0.295 0.543,-0.244ZM0.284,-0.099C0.32,-0.099 0.35,-0.113 0.374,-0.14C0.397,-0.167 0.409,-0.202 0.409,-0.244C0.409,-0.286 0.397,-0.32 0.374,-0.347C0.351,-0.374 0.321,-0.387 0.284,-0.387C0.248,-0.387 0.218,-0.373 0.195,-0.346C0.171,-0.319 0.159,-0.284 0.159,-0.242C0.159,-0.2 0.171,-0.166 0.194,-0.139C0.217,-0.112 0.247,-0.099 0.284,-0.099Z" style="fill:rgb(19,16,13);fill-rule:nonzero;"/>
        </g>
        <g transform="matrix(50,0,0,50,213.809,488.785)">
            <path d="M0.552,0L0.707,-0.485L0.57,-0.485L0.501,-0.203L0.426,-0.485L0.283,-0.485L0.213,-0.203L0.138,-0.503L0.01,-0.465L0.155,0L0.265,0L0.352,-0.297L0.443,0L0.552,0Z" style="fill:rgb(19,16,13);fill-rule:nonzero;"/>
        </g>
        <g transform="matrix(50,0,0,50,249.659,488.785)">
            <path d="M0.49,-0.244C0.49,-0.291 0.482,-0.334 0.466,-0.373C0.45,-0.411 0.425,-0.441 0.392,-0.464C0.359,-0.487 0.318,-0.498 0.269,-0.498C0.219,-0.498 0.176,-0.488 0.139,-0.467C0.102,-0.446 0.074,-0.416 0.055,-0.377C0.035,-0.338 0.025,-0.293 0.025,-0.242C0.025,-0.163 0.049,-0.101 0.097,-0.056C0.144,-0.011 0.214,0.012 0.306,0.012C0.345,0.012 0.379,0.007 0.408,-0.004C0.437,-0.014 0.463,-0.029 0.488,-0.048L0.45,-0.142C0.425,-0.128 0.402,-0.117 0.381,-0.11C0.36,-0.103 0.336,-0.099 0.309,-0.099C0.263,-0.099 0.229,-0.108 0.206,-0.126C0.184,-0.144 0.17,-0.17 0.163,-0.204L0.49,-0.204L0.49,-0.244ZM0.164,-0.291C0.169,-0.322 0.181,-0.346 0.199,-0.363C0.217,-0.379 0.239,-0.387 0.266,-0.387C0.293,-0.387 0.315,-0.379 0.332,-0.363C0.348,-0.347 0.36,-0.323 0.367,-0.291L0.164,-0.291Z" style="fill:rgb(19,16,13);fill-rule:nonzero;"/>
        </g>
    </g>
    <g transform="matrix(5.56512,0,0,5.56512,1072.15,-2100.07)">
        <g transform="matrix(50,0,0,50,-174.691,488.785)">
            <path d="M0.265,-0.68L0.01,0L0.191,0L0.238,-0.134L0.473,-0.134L0.522,0.01L0.701,-0.008L0.447,-0.68L0.265,-0.68ZM0.421,-0.277L0.288,-0.277L0.353,-0.462L0.421,-0.277Z" style="fill:rgb(19,16,13);fill-rule:nonzero;"/>
        </g>
        <g transform="matrix(50,0,0,50,-139.141,488.785)">
            <path d="M0.445,-0.205L0.537,-0.329L0.537,0L0.719,0L0.719,-0.68L0.598,-0.68L0.41,-0.421L0.205,-0.68L0.08,-0.68L0.08,0L0.262,0L0.262,-0.329L0.372,-0.195L0.445,-0.205Z" style="fill:rgb(19,16,13);fill-rule:nonzero;"/>
        </g>
        <g transform="matrix(50,0,0,50,-88.1915,488.785)">
            <path d="M0.462,-0.259L0.462,-0.142C0.439,-0.138 0.418,-0.136 0.398,-0.136C0.367,-0.136 0.338,-0.143 0.311,-0.157C0.284,-0.171 0.261,-0.193 0.244,-0.224C0.227,-0.254 0.218,-0.292 0.218,-0.338C0.218,-0.382 0.227,-0.42 0.246,-0.451C0.264,-0.482 0.287,-0.505 0.316,-0.521C0.344,-0.536 0.372,-0.544 0.401,-0.544C0.426,-0.544 0.452,-0.542 0.477,-0.538C0.502,-0.533 0.532,-0.525 0.565,-0.514L0.619,-0.637C0.594,-0.654 0.56,-0.668 0.518,-0.678C0.475,-0.688 0.436,-0.693 0.399,-0.693C0.332,-0.693 0.27,-0.679 0.214,-0.65C0.157,-0.621 0.113,-0.58 0.08,-0.526C0.047,-0.472 0.03,-0.409 0.03,-0.337C0.03,-0.264 0.045,-0.202 0.075,-0.149C0.104,-0.096 0.146,-0.056 0.201,-0.029C0.256,-0.001 0.32,0.013 0.393,0.013C0.431,0.013 0.473,0.008 0.52,-0.001C0.566,-0.01 0.601,-0.022 0.626,-0.037L0.626,-0.392L0.361,-0.392L0.345,-0.259L0.462,-0.259Z" style="fill:rgb(19,16,13);fill-rule:nonzero;"/>
        </g>
        <g transform="matrix(50,0,0,50,-54.8915,488.785)">
            <path d="M0.551,-0.143L0.262,-0.143L0.262,-0.68L0.08,-0.68L0.08,0L0.568,0L0.551,-0.143Z" style="fill:rgb(19,16,13);fill-rule:nonzero;"/>
        </g>
        <g transform="matrix(50,0,0,50,7.00852,488.785)">
            <path d="M0.337,0C0.42,0 0.489,-0.016 0.544,-0.048C0.598,-0.079 0.625,-0.131 0.625,-0.203C0.625,-0.234 0.617,-0.264 0.601,-0.291C0.584,-0.318 0.562,-0.342 0.534,-0.361C0.553,-0.38 0.569,-0.4 0.58,-0.419C0.591,-0.438 0.597,-0.46 0.597,-0.484C0.597,-0.549 0.571,-0.598 0.518,-0.631C0.465,-0.664 0.398,-0.68 0.317,-0.68L0.08,-0.68L0.08,0L0.337,0ZM0.311,-0.537C0.342,-0.537 0.366,-0.532 0.383,-0.521C0.4,-0.51 0.409,-0.495 0.409,-0.475C0.409,-0.458 0.399,-0.445 0.379,-0.436C0.358,-0.427 0.333,-0.422 0.303,-0.422L0.262,-0.422L0.262,-0.537L0.311,-0.537ZM0.339,-0.279C0.37,-0.279 0.394,-0.273 0.411,-0.26C0.428,-0.247 0.437,-0.23 0.437,-0.207C0.437,-0.186 0.428,-0.171 0.411,-0.16C0.394,-0.149 0.37,-0.143 0.341,-0.143L0.262,-0.143L0.262,-0.279L0.339,-0.279Z" style="fill:rgb(19,16,13);fill-rule:nonzero;"/>
        </g>
        <g transform="matrix(50,0,0,50,39.2585,488.785)">
            <path d="M0.265,-0.68L0.01,0L0.191,0L0.238,-0.134L0.473,-0.134L0.522,0.01L0.701,-0.008L0.447,-0.68L0.265,-0.68ZM0.421,-0.277L0.288,-0.277L0.353,-0.462L0.421,-0.277Z" style="fill:rgb(19,16,13);fill-rule:nonzero;"/>
        </g>
        <g transform="matrix(50,0,0,50,74.8085,488.785)">
            <path d="M0.551,-0.143L0.262,-0.143L0.262,-0.68L0.08,-0.68L0.08,0L0.568,0L0.551,-0.143Z" style="fill:rgb(19,16,13);fill-rule:nonzero;"/>
        </g>
    </g>
    <g transform="matrix(0.868765,0,0,0.868765,-203.39,194.418)">
        <path d="M1408.11,498.139C1472.67,498.139 1525.19,445.618 1525.19,381.062C1525.19,316.506 1472.67,263.986 1408.11,263.986C1343.55,263.986 1291.03,316.506 1291.03,381.062C1291.03,445.618 1343.55,498.139 1408.11,498.139ZM1398.99,430.146C1386.57,430.685 1374.65,432.311 1363.46,434.999C1371.67,457.489 1384.52,473.499 1398.99,478.341L1398.99,430.146ZM1417.23,430.143L1417.23,478.341C1431.7,473.497 1444.55,457.485 1452.76,434.992C1441.57,432.306 1429.64,430.68 1417.23,430.143ZM1470.47,440.413C1467.05,450.108 1462.85,458.786 1457.95,466.345C1467.19,460.922 1475.57,453.996 1482.6,445.939C1478.85,443.923 1474.79,442.073 1470.47,440.413ZM1345.75,440.427C1341.41,442.094 1337.35,443.937 1333.62,445.938C1340.65,453.996 1349.03,460.922 1358.27,466.344C1353.37,458.789 1349.17,450.114 1345.75,440.427ZM1506.5,390.184L1479.86,390.184C1479.35,401.466 1477.89,412.447 1475.52,422.885C1482.01,425.287 1487.98,428.025 1493.33,431.039C1500.65,418.593 1505.17,404.557 1506.5,390.184ZM1336.36,390.184L1309.72,390.184C1311.05,404.566 1315.57,418.595 1322.89,431.032C1328.24,428.021 1334.21,425.289 1340.71,422.887C1338.33,412.444 1336.87,401.466 1336.36,390.184ZM1398.99,390.184L1354.64,390.184C1355.14,399.561 1356.39,408.732 1358.37,417.516C1371.2,414.352 1384.84,412.462 1398.99,411.892L1398.99,390.184ZM1461.58,390.184L1417.23,390.184L1417.23,411.892C1431.38,412.462 1445.02,414.349 1457.86,417.509C1459.84,408.731 1461.08,399.564 1461.58,390.184ZM1322.89,331.094C1315.57,343.537 1311.05,357.569 1309.72,371.94L1336.36,371.94C1336.87,360.661 1338.33,349.677 1340.71,339.24C1334.21,336.837 1328.24,334.104 1322.89,331.094ZM1358.37,344.611C1356.39,353.392 1355.14,362.56 1354.64,371.94L1398.99,371.94L1398.99,350.234C1384.85,349.665 1371.21,347.775 1358.37,344.611ZM1457.86,344.617C1445.03,347.775 1431.39,349.665 1417.23,350.234L1417.23,371.94L1461.58,371.94C1461.08,362.564 1459.84,353.394 1457.86,344.617ZM1493.33,331.088C1487.98,334.103 1482.01,336.839 1475.52,339.242C1477.89,349.684 1479.35,360.659 1479.86,371.94L1506.5,371.94C1505.17,357.552 1500.64,343.52 1493.33,331.088ZM1417.23,283.783L1417.23,331.981C1429.65,331.446 1441.58,329.822 1452.76,327.135C1444.55,304.64 1431.7,288.626 1417.23,283.783ZM1398.99,283.783C1384.52,288.628 1371.67,304.644 1363.46,327.128C1374.65,329.816 1386.58,331.443 1398.99,331.981L1398.99,283.783ZM1457.95,295.78C1462.85,303.343 1467.05,312.022 1470.47,321.714C1474.8,320.051 1478.86,318.201 1482.6,316.189C1475.57,308.129 1467.19,301.203 1457.95,295.78ZM1358.27,295.783C1349.03,301.203 1340.66,308.126 1333.62,316.189C1337.34,318.185 1341.4,320.03 1345.75,321.699C1349.17,312.012 1353.37,303.339 1358.27,295.783Z" style="fill:rgb(178,178,178);"/>
    </g>
    <g transform="matrix(1.0758,0,0,0.4151,-133.785,-722.203)">
        <rect x="223" y="3322.61" width="1431.86" height="39.714" style="fill:rgb(178,178,178);"/>
    </g>
</svg>
